<svg xmlns="http://www.w3.org/2000/svg" viewBox="0 0 20 20"><path fill="#fff" d="M10,0C7.3,0,6.9,0,5.9,0.1S4.1,0.3,3.5,0.5C2.8,0.8,2.2,1.1,1.7,1.7C1.1,2.2,0.8,2.8,0.5,3.4 C0.3,4.1,0.1,4.8,0.1,5.9S0,7.3,0,10s0,3.1,0.1,4.1c0,1.1,0.2,1.8,0.5,2.4c0.3,0.7,0.6,1.2,1.2,1.8s1.1,0.9,1.8,1.2 c0.6,0.2,1.4,0.4,2.4,0.5S7.3,20,10,20s3.1,0,4.1-0.1c1.1,0,1.8-0.2,2.4-0.5c0.7-0.3,1.2-0.6,1.8-1.2s0.9-1.1,1.2-1.8 c0.2-0.6,0.4-1.4,0.5-2.4c0-1.1,0.1-1.4,0.1-4.1s0-3.1-0.1-4.1c0-1.1-0.2-1.8-0.5-2.4c-0.3-0.7-0.6-1.2-1.2-1.8 c-0.6-0.6-1.1-0.9-1.8-1.2c-0.6-0.2-1.4-0.4-2.4-0.5C13.1,0,12.7,0,10,0L10,0z M10,2.6c1.8,0,2.4,0,3,0l0,0 c-0.2,0.4-0.3,0.9-0.3,1.4c0,1.8,1.5,3.3,3.3,3.3c0.5,0,1-0.1,1.4-0.3l0,0c0,0.6,0,1.2,0,3c0,2.4,0,2.7-0.1,3.6 c0,0.9-0.2,1.4-0.3,1.7c-0.2,0.4-0.4,0.7-0.7,1c-0.3,0.3-0.6,0.5-1,0.7c-0.3,0.1-0.8,0.3-1.7,0.3c-0.9,0-1.2,0.1-3.6,0.1 s-2.7,0-3.6-0.1c-0.9,0-1.4-0.2-1.7-0.3c-0.4-0.2-0.7-0.4-1-0.7s-0.5-0.6-0.7-1c-0.1-0.3-0.3-0.8-0.3-1.7c0-0.9-0.1-1.2-0.1-3.6 s0-2.7,0.1-3.6C2.7,5.5,2.9,5,3,4.7c0.2-0.4,0.4-0.7,0.7-1s0.6-0.5,1-0.7C5,2.9,5.5,2.7,6.4,2.7C7.3,2.6,7.6,2.6,10,2.6"/><path fill="#fff" d="M10,6.1c-2.1,0-3.9,1.7-3.9,3.9s1.7,3.9,3.9,3.9s3.9-1.7,3.9-3.9S12.2,6.1,10,6.1z M10,11.7 c-1,0-1.7-0.8-1.7-1.7S9,8.3,10,8.3S11.7,9,11.7,10S11,11.7,10,11.7z"/></svg>