<?xml version="1.0" encoding="utf-8"?>
<!-- Generator: Adobe Illustrator 21.0.0, SVG Export Plug-In . SVG Version: 6.00 Build 0)  -->
<svg version="1.1" id="Layer_1" xmlns="http://www.w3.org/2000/svg" xmlns:xlink="http://www.w3.org/1999/xlink" x="0px" y="0px"
	 viewBox="0 0 214 85" style="enable-background:new 0 0 214 85;" xml:space="preserve">
<style type="text/css">
	.st0{fill:#C7962A;}
	.st1{fill:#FFFFFF;}
</style>
<path class="st0" d="M6,10c-7.2,9.3-8.1,21.4-2,31.6c4.7,7.8,14.1,11.2,22.8,10c9.8-1.3,17.7-8.3,21.7-17.2c4.6-10,1.9-21-6.3-28.3
	c-5.3-4.7-12.4-6.8-19.4-6C16.3,1,10.2,5,6,10c-0.9,1.1,0.7,2.7,1.6,1.6c3-3.6,7.4-7,11.9-8.4c5.3-1.7,11.1-1,16,1.3
	c5.3,2.5,9.7,7.2,11.8,12.7c2.1,5.4,1.3,11.5-1.1,16.7C41.9,43.6,32.6,50.1,22,49.6C10.5,49,2.9,39.3,2.2,28.2
	c-0.4-6,1.8-11.9,5.5-16.6C8.5,10.5,6.9,8.9,6,10z"/>
<path class="st0" d="M18.8,15.8c-1.3,1.8-1.2,4.6,0.7,6c1.8,1.3,4.2,0.8,5.6-0.8c1.7-1.8,1.6-4.7-0.5-6.2c-1.8-1.4-4.2-1-5.7,0.7
	c-1,1.1,0.6,2.7,1.6,1.6c0.7-0.7,1.5-1.1,2.5-0.7c1.2,0.6,1.2,2,0.5,2.9c-0.6,0.7-1.6,1.1-2.4,0.7c-1.3-0.6-1-2.2-0.3-3.2
	C21.6,15.8,19.6,14.6,18.8,15.8z"/>
<path class="st0" d="M31.5,20c-1.3,1.8-1.2,4.6,0.7,6c1.8,1.3,4.2,0.8,5.6-0.8c1.7-1.8,1.6-4.7-0.5-6.2c-1.8-1.4-4.2-1-5.7,0.7
	c-1,1.1,0.6,2.7,1.6,1.6c0.7-0.7,1.5-1.1,2.5-0.7c1.2,0.6,1.2,2,0.5,2.9c-0.6,0.7-1.6,1.1-2.4,0.7c-1.3-0.6-1-2.2-0.3-3.2
	C34.3,20,32.4,18.8,31.5,20z"/>
<path class="st0" d="M13.2,27.9c-1.3,1.8-1.2,4.6,0.7,6c1.8,1.3,4.2,0.8,5.6-0.8c1.7-1.8,1.6-4.7-0.5-6.2c-1.8-1.4-4.2-1-5.7,0.7
	c-1,1.1,0.6,2.7,1.6,1.6c0.7-0.7,1.5-1.1,2.5-0.7c1.2,0.6,1.2,2,0.5,2.9c-0.6,0.7-1.6,1.1-2.4,0.7c-1.3-0.6-1-2.2-0.3-3.2
	C16,27.8,14.1,26.7,13.2,27.9z"/>
<path class="st0" d="M25.4,31.6c-1.3,1.8-1.2,4.6,0.7,6c1.8,1.3,4.2,0.8,5.6-0.8c1.7-1.8,1.6-4.7-0.5-6.2c-1.8-1.4-4.2-1-5.7,0.7
	c-1,1.1,0.6,2.7,1.6,1.6c0.7-0.7,1.5-1.1,2.5-0.7c1.2,0.6,1.2,2,0.5,2.9c-0.6,0.7-1.6,1.1-2.4,0.7c-1.3-0.6-1-2.2-0.3-3.2
	C28.3,31.6,26.3,30.4,25.4,31.6z"/>
<path class="st1" d="M80,36.9c1-3.4,1.6-7,0.6-10.4c-1.1-3.9-4.4-6.2-8.3-6.7c-7.9-1.1-14.4,5.2-17,12.2c-2.3,6.3-1.1,15.9,6.5,17.7
	C69.9,51.5,77.6,43.8,80,36.9c0.5-1.4-1.7-2-2.2-0.6c-1.4,3.7-2.9,7.3-4,11.1c-1.7,6.1-1.9,12.3-2.7,18.5c-0.6,4.4-1.6,8.9-3.8,12.7
	c-1,1.8-2.7,3.8-4.9,4c-4.7,0.4-6.1-6-5.6-9.5C58.1,64.1,67.1,57,74,52c3.8-2.8,7.9-5.2,12-7.5c3.9-2.1,8.1-3.6,11.7-6.1
	c4.5-3.1,11-11.1,5.8-16.4c-2.2-2.2-5.8-2-8.5-1.2c-3.5,1-6.2,3.6-8,6.6c-3.5,5.5-4.6,14.2-0.2,19.5c4.3,5.2,11.7,2.8,15.6-1.3
	c4.8-5.1,7.2-12.1,10.7-18.1c1.3-2.2,2.9-4.7,5.7-4.7c3.9-0.1,4,5.8,4,8.5c0,3-0.3,5.9-1.1,8.8c-0.5,1.9-1.3,3.8-2.5,5.3
	c-1.7,2.2-5.8,2.9-6.3-0.8c-0.2-1.4-2.5-1.5-2.3,0c0.5,4.3,4.6,6.1,8.3,4c3.1-1.7,4.5-5.9,5.3-9.2c1.2-5.1,2.3-13.8-2-17.7
	c-2-1.8-5.3-1.6-7.3,0c-2.2,1.7-3.7,4.3-5,6.7c-3.2,5.9-5.8,13.6-11.6,17.6c-2.6,1.9-6.2,2.1-9,0.3c-2.9-1.9-3.4-6.2-3.2-9.3
	c0.4-6.8,6.2-16.7,14.3-14.2c3.1,1,2.7,4.8,1.7,7.2c-2,4.5-6.5,7.4-10.8,9.3c-8,3.6-15.6,8.3-22.5,13.8c-6.4,5.1-13.4,12-14.3,20.7
	c-0.5,4.3,1.5,9.2,5.7,10.8c4.8,1.9,8.5-3.1,10.2-6.9c1.9-4.3,2.7-9,3.2-13.6c0.8-6.3,1.2-12.3,3.1-18.4
	C77.6,42.7,78.9,39.8,80,36.9c-0.7-0.2-1.5-0.4-2.2-0.6c-2,6-7.9,11.6-14.5,11.2c-7.3-0.4-7.4-10-5.7-15c1.9-5.7,7.1-10.6,13.2-10.7
	c3.9,0,6.8,2.1,7.8,5.8c0.8,2.7,0,6-0.8,8.6C77.4,37.7,79.6,38.3,80,36.9L80,36.9z"/>
<path class="st1" d="M121.4,34.2c0,1-1,0.9,0.2,0.8c0.7-0.1,1.3-0.1,2-0.1c1.8,0,3.6,0,5.4,0c2.9,0.1,5.9,0.4,8.8-0.1
	c1.4-0.2,0.8-2.4-0.6-2.2c-3.5,0.6-7.5,0-11,0c-1.2,0-7.2-0.8-7.1,1.6C119.2,35.7,121.5,35.7,121.4,34.2L121.4,34.2z"/>
<path class="st1" d="M128.1,21.3c0,8.9-0.2,17.9-1.5,26.7c-0.2,1.4,2,2.1,2.2,0.6c1.3-9,1.6-18.2,1.6-27.3
	C130.4,19.8,128.1,19.8,128.1,21.3L128.1,21.3z"/>
<path class="st1" d="M144.9,25.7c-0.2-3.4-3.6-6.6-7.1-4.5c-2.7,1.6-3.7,4.6-4.4,7.5c-1.3,5.3-2.4,14,1.9,18.2
	c4.2,4.1,9.9,0.8,12.8-3c5-6.4,6.1-14.9,6.6-22.8c-0.8,0-1.5,0-2.3,0c-0.1,9.2-3.3,18.1-4.2,27.2c-0.1,1.3,2,1.6,2.2,0.3
	c1-6.1,2.8-12.2,6.2-17.4c2.1-3.3,7.4-10.5,12.1-7.7c1.3,0.7,2.4-1.2,1.1-2c-5.1-3-10.1,2.1-13.2,5.8c-4.8,5.8-7.2,13.3-8.4,20.7
	c0.7,0.1,1.5,0.2,2.2,0.3c0.9-9.1,4.1-18,4.2-27.2c0-1.5-2.2-1.5-2.3,0c-0.4,6.3-1.2,12.4-4.1,18.1c-1.7,3.5-5.4,8.4-9.9,6.9
	c-4.3-1.4-3.8-8-3.6-11.5c0.2-2.8,0.7-5.6,1.7-8.2c0.4-1,0.9-2,1.7-2.8c1.9-1.9,4.3-0.3,4.5,2C142.7,27.2,145,27.2,144.9,25.7
	L144.9,25.7z"/>
<path class="st1" d="M152.8,39.1c1-2.9,3.1-4.7,6.3-4c2,0.5,2.9,4.5,3.5,6.1c1.4,3.8,3.1,7.8,7.8,7.1c3.8-0.5,5.8-5.4,6.9-8.5
	c1.4-3.8,1.8-8.3,3.7-11.9c0.7-1.3-1.2-2.4-2-1.2c-2.5,4.5-3,11.3-1.4,16.1c2.4,7.2,11.7,8.4,17.3,4.3c5.9-4.4,7.3-13.6,5.3-20.2
	c-2.2-7.3-11.3-9.7-17.2-5.2c-1.7,1.3-3,3.1-4,5c-0.7,1.3,1.3,2.5,2,1.2c1.8-3.5,4.7-6.2,8.7-6.3c3.2-0.1,6.3,1.8,7.8,4.7
	c2.8,5.4,1.2,13.9-3,18.1c-2.5,2.6-6.3,3.3-9.7,2.5c-2.9-0.7-4.7-3-5.4-5.8c-1-3.9-0.5-9.7,1.5-13.3c-0.7-0.4-1.3-0.8-2-1.2
	c-1.9,3.6-4.3,22.9-11.4,19c-1.9-1.1-2.6-4.6-3.3-6.5c-0.7-2-1.5-4.2-3.2-5.6c-1.5-1.2-3.8-1.1-5.6-0.7c-2.6,0.7-4.1,3.1-4.9,5.5
	C150.1,39.9,152.3,40.5,152.8,39.1L152.8,39.1z"/>
<path class="st1" d="M201.8,30.7c-3,4.1-7.4,14-1.5,17.7c4.1,2.6,10.4-1.4,13.4-4.2c1.1-1-0.6-2.6-1.6-1.6
	c-2.4,2.4-6.6,5.1-10.2,4.1c-2.5-0.7-2.1-4.6-1.8-6.5c0.5-3,1.9-5.8,3.7-8.2C204.6,30.7,202.7,29.5,201.8,30.7L201.8,30.7z"/>
<path class="st1" d="M95.6,14.5c0-0.6-0.5-1.2-1.1-1.1l0,0c-0.5,0-1.1,0.2-1.4,0.7c-0.3,0.6-0.1,1.2,0.4,1.6
	c0.3,0.2,0.6,0.2,0.9,0.2c0.6,0,1.1-0.5,1.1-1.1V14.5z"/>
<path class="st1" d="M105.9,14.9c0-0.6-0.5-1.1-1.1-1.1c-0.6,0-1.1,0.5-1.1,1.1c0,0.1,0,0.2,0,0.3c0,0.6,0.5,1.1,1.1,1.1
	c0.6,0,1.1-0.5,1.1-1.1L105.9,14.9z"/>
<path class="st1" d="M1,1.1C2.3,11.2,13.6,17.8,22.9,19c1.5,0.2,1.4-2.1,0-2.3C15,15.7,4.4,9.8,3.2,1.1C3.1-0.4,0.8-0.4,1,1.1L1,1.1
	z"/>
<path class="st1" d="M28,35.6c7.4-0.6,7,11.7,13.5,13.8c4,1.3,7.5-1.5,9.7-4.5c3.2-4.5,4.9-10,7.6-14.8c0.7-1.3-1.2-2.4-2-1.2
	c-2.5,4.4-4.2,9.1-6.7,13.4c-1.8,3.2-6,7.1-9.6,3.9c-4.5-4-4.5-13.6-12.4-12.9C26.6,33.4,26.5,35.7,28,35.6L28,35.6z"/>
<path class="st1" d="M17.4,31.7c5.4-4,10.9-7.3,17.7-8.3c1.4-0.2,0.8-2.4-0.6-2.2c-6.9,1-12.7,4.5-18.2,8.6
	C15.1,30.6,16.2,32.6,17.4,31.7L17.4,31.7z"/>
<path class="st1" d="M7.5,70H3.9v5.5H2.7v-6.6h5.9v6.6H7.5V70z"/>
<path class="st1" d="M14.6,68.7c2.1,0,3.5,1.5,3.5,3.4s-1.4,3.4-3.5,3.4c-2.1,0-3.5-1.5-3.5-3.4S12.5,68.7,14.6,68.7z M14.6,74.5
	c1.3,0,2.3-0.9,2.3-2.3c0-1.4-0.9-2.3-2.3-2.3c-1.3,0-2.3,0.9-2.3,2.3C12.3,73.5,13.2,74.5,14.6,74.5z"/>
<path class="st1" d="M20.5,68.9h1.2v5.5H24v-5.5h1.2v5.5h2.4v-5.5h1.2v6.6h-8.3V68.9z"/>
<path class="st1" d="M31.6,75.4v-6.6h1.2v4.9l3.8-4.9h1.2v6.6h-1.2v-4.9l-3.8,4.9H31.6z"/>
<path class="st1" d="M40.6,68.9c0.6,0,1.4-0.1,2.4-0.1c1.8,0,2.8,0.5,2.8,1.7c0,0.8-0.5,1.4-1.3,1.5v0c1.1,0.2,1.5,0.7,1.5,1.5
	c0,1.2-1,1.9-3,1.9c-0.8,0-1.8-0.1-2.4-0.1V68.9z M41.8,69.8v2h1.5c0.8,0,1.3-0.4,1.3-1c0-0.7-0.7-1-1.5-1
	C42.6,69.7,42.1,69.8,41.8,69.8z M41.8,72.5v2c0.4,0,0.8,0,1.3,0c1.1,0,1.7-0.4,1.7-1.1c0-0.7-0.6-1-1.6-1H41.8z"/>
<path class="st1" d="M80.7,75.4v-6.6h1.2v4.9l3.8-4.9h1.2v6.6h-1.2v-4.9l-3.8,4.9H80.7z"/>
<path class="st1" d="M93.7,68.9h1.2v0.8c0.5-0.5,1.3-0.9,2.2-0.9c1.9,0,3,1.4,3,3.3c0,2-1.4,3.5-3.4,3.5c-0.7,0-1.4-0.1-1.9-0.5v3.2
	h-1.2V68.9z M94.8,70.7V74c0.6,0.4,1.1,0.5,1.8,0.5c1.4,0,2.3-1,2.3-2.4c0-1.3-0.8-2.3-2.1-2.3C96,69.8,95.3,70.2,94.8,70.7z"/>
<path class="st1" d="M108.1,74.7c-0.6,0.6-1.6,0.9-2.5,0.9c-2.1,0-3.5-1.4-3.5-3.4c0-1.9,1.2-3.4,3.4-3.4c1.7,0,3.1,1.2,3.1,3
	c0,0.3,0,0.6-0.1,0.8h-5.1c0.1,1.2,1,2,2.3,2c0.8,0,1.6-0.3,2-0.7L108.1,74.7z M103.3,71.6h4c-0.1-1.1-0.8-1.8-1.9-1.8
	C104.2,69.8,103.5,70.6,103.3,71.6z"/>
<path class="st1" d="M110.8,68.9h1.1l2.5,3.3l2.4-3.3h1v6.6h-1.2v-4.8l-2.3,3.1h0l-2.4-3.1v4.8h-1.2V68.9z"/>
<path class="st1" d="M123.8,68.7c2.1,0,3.5,1.5,3.5,3.4s-1.4,3.4-3.5,3.4s-3.5-1.5-3.5-3.4S121.7,68.7,123.8,68.7z M123.8,74.5
	c1.3,0,2.3-0.9,2.3-2.3c0-1.4-0.9-2.3-2.3-2.3c-1.3,0-2.3,0.9-2.3,2.3C121.5,73.5,122.5,74.5,123.8,74.5z"/>
<path class="st1" d="M134.5,72.7h-3.7v2.8h-1.2v-6.6h1.2v2.7h3.7v-2.7h1.2v6.6h-1.2V72.7z"/>
<path class="st1" d="M137.7,68.9h6V70h-2.4v5.4h-1.2V70h-2.4V68.9z"/>
<path class="st1" d="M152.8,68.7c2.1,0,3.5,1.5,3.5,3.4s-1.4,3.4-3.5,3.4s-3.5-1.5-3.5-3.4S150.7,68.7,152.8,68.7z M152.8,74.5
	c1.3,0,2.3-0.9,2.3-2.3c0-1.4-0.9-2.3-2.3-2.3c-1.3,0-2.3,0.9-2.3,2.3C150.5,73.5,151.5,74.5,152.8,74.5z"/>
<path class="st1" d="M157.5,74.3h0.8c0.4-0.6,0.9-1.9,1-3.7l0.1-1.7h4.5v5.5h1.1V77h-1.1v-1.6h-5.3V77h-1.1V74.3z M159.6,74.3h3.2
	V70h-2.2l-0.1,1.1C160.3,72.7,159.9,73.9,159.6,74.3z"/>
<path class="st1" d="M172.6,74.7c-0.6,0.6-1.6,0.9-2.5,0.9c-2.1,0-3.5-1.4-3.5-3.4c0-1.9,1.2-3.4,3.4-3.4c1.7,0,3.1,1.2,3.1,3
	c0,0.3,0,0.6-0.1,0.8h-5.1c0.1,1.2,1,2,2.3,2c0.8,0,1.6-0.3,2-0.7L172.6,74.7z M167.8,71.6h4c-0.1-1.1-0.8-1.8-1.9-1.8
	C168.7,69.8,168,70.6,167.8,71.6z"/>
<path class="st1" d="M174.3,68.9h1.5L178,72l-2.4,3.4h-1.4l2.5-3.4L174.3,68.9z M178.3,68.9h1.2v6.6h-1.2V68.9z M181.1,72l2.6,3.4
	h-1.4l-2.4-3.4l2.3-3.2h1.4L181.1,72z"/>
<path class="st1" d="M184.7,74.3h0.8c0.4-0.6,0.9-1.9,1-3.7l0.1-1.7h4.5v5.5h1.1V77h-1.1v-1.6h-5.3V77h-1.1V74.3z M186.8,74.3h3.2
	V70h-2.2l-0.1,1.1C187.5,72.7,187.1,73.9,186.8,74.3z"/>
<path class="st1" d="M194.2,68.9h1.2v2h1.1c2,0,2.6,1.1,2.6,2.3c0,1.2-0.7,2.3-2.7,2.3h-2.1V68.9z M195.4,71.9v2.4h0.8
	c1.2,0,1.6-0.4,1.6-1.2c0-0.8-0.5-1.2-1.6-1.2H195.4z M200.3,68.9h1.2v6.6h-1.2V68.9z"/>
</svg>
