<svg xmlns="http://www.w3.org/2000/svg" viewBox="0 0 23 16"><path fill="#fff" d="M22.4,2c0.2-0.5,0-1-0.8-1h-2.5c-0.7,0-0.9,0.3-1.1,0.7c0,0-1.3,3.2-3.1,5.2c-0.6,0.6-0.8,0.8-1.2,0.8 c-0.2,0-0.4-0.2-0.4-0.7V2c0-0.6-0.2-1-0.7-1H8.7C8.3,1,8.1,1.3,8.1,1.6c0,0.6,0.9,0.8,1,2.5v3.7c0,0.9-0.2,1-0.4,1 C7.8,8.8,5.8,5.6,4.5,2C4.2,1.3,4,1,3.4,1H0.8C0.2,1,0,1.3,0,1.7c0,0.7,0.8,4.1,4,8.5c2,3,5,4.7,7.6,4.7c1.6,0,1.8-0.3,1.8-1v-2.3 c0-0.7,0.2-0.9,0.7-0.9c0.3,0,1,0.2,2.5,1.7c1.7,1.7,2,2.5,3,2.5h2.5c0.7,0,1.1-0.3,0.8-1.1c-0.3-0.7-1-1.7-2.1-3 c-0.6-0.7-1.4-1.5-1.7-1.8c-0.3-0.5-0.3-0.7,0-1.1C19,7.9,22.1,3.4,22.4,2z"/></svg>